<?xml version="1.0" standalone="no"?>
<!DOCTYPE svg PUBLIC "-//W3C//DTD SVG 20010904//EN"
 "http://www.w3.org/TR/2001/REC-SVG-20010904/DTD/svg10.dtd">
<svg version="1.0" xmlns="http://www.w3.org/2000/svg"
 width="512.000000pt" height="512.000000pt" viewBox="0 0 512.000000 512.000000"
 preserveAspectRatio="xMidYMid meet">

<g transform="translate(0.000000,512.000000) scale(0.100000,-0.100000)"
fill="#000000" stroke="none">
<path d="M3995 2053 c-126 -155 -338 -332 -523 -434 -243 -135 -468 -202 -788
-236 l-71 -8 173 -643 c95 -354 179 -654 188 -667 36 -55 133 -75 192 -41 21
13 423 520 465 588 4 6 141 -45 347 -131 194 -80 354 -141 372 -141 79 0 142
64 141 143 0 35 -407 1581 -429 1628 -5 12 -20 -1 -67 -58z"/>
</g>
</svg>
